<svg width="114" height="114" viewBox="0 0 114 114" fill="none" xmlns="http://www.w3.org/2000/svg">
<path d="M81.0416 32.9584C83.3848 30.6152 87.1838 30.6152 89.5269 32.9584L109.326 52.7574C111.669 55.1005 111.669 58.8995 109.326 61.2427L89.5269 81.0416C87.1838 83.3848 83.3848 83.3848 81.0416 81.0416L61.2426 61.2426C58.8995 58.8995 58.8995 55.1005 61.2426 52.7574L81.0416 32.9584Z" fill="#CDF0EB"/>
<path d="M52.7574 61.2427C55.1005 58.8995 58.8995 58.8995 61.2426 61.2426L81.0416 81.0416C83.3848 83.3848 83.3848 87.1838 81.0416 89.5269L61.2426 109.326C58.8995 111.669 55.1005 111.669 52.7574 109.326L32.9584 89.5269C30.6152 87.1838 30.6152 83.3848 32.9584 81.0416L52.7574 61.2427Z" fill="#FFF4DA"/>
<path d="M24.4731 32.9584C26.8162 30.6152 30.6152 30.6152 32.9584 32.9584L52.7574 52.7574C55.1005 55.1005 55.1005 58.8995 52.7574 61.2427L32.9584 81.0416C30.6152 83.3848 26.8162 83.3848 24.4731 81.0416L4.6741 61.2426C2.33096 58.8995 2.33096 55.1005 4.6741 52.7574L24.4731 32.9584Z" fill="#FDD4D7"/>
<path d="M52.7574 4.67411C55.1005 2.33097 58.8995 2.33097 61.2426 4.67411L81.0416 24.4731C83.3848 26.8162 83.3848 30.6152 81.0416 32.9584L61.2426 52.7574C58.8995 55.1005 55.1005 55.1005 52.7574 52.7574L32.9584 32.9584C30.6152 30.6152 30.6152 26.8162 32.9584 24.4731L52.7574 4.67411Z" fill="#C3E0FB"/>
<path d="M82.4558 79.6274L62.6569 59.8284C61.0948 58.2663 61.0948 55.7337 62.6569 54.1716L82.4558 34.3726C84.0179 32.8105 86.5506 32.8105 88.1127 34.3726L107.912 54.1716C109.474 55.7337 109.474 58.2663 107.912 59.8284L88.1127 79.6274C86.5506 81.1895 84.0179 81.1895 82.4558 79.6274ZM79.6274 31.5442L59.8284 51.3432C58.2663 52.9053 55.7337 52.9053 54.1716 51.3432L34.3726 31.5442C32.8105 29.9821 32.8105 27.4494 34.3726 25.8873L54.1716 6.08833C55.7337 4.52623 58.2663 4.52623 59.8284 6.08833L79.6274 25.8873C81.1895 27.4494 81.1895 29.9821 79.6274 31.5442ZM31.5442 34.3726L51.3431 54.1716C52.9052 55.7337 52.9052 58.2663 51.3431 59.8284L31.5442 79.6274C29.9821 81.1895 27.4494 81.1895 25.8873 79.6274L6.08832 59.8284C4.52622 58.2663 4.52622 55.7337 6.08832 54.1716L25.8873 34.3726C27.4494 32.8105 29.9821 32.8105 31.5442 34.3726ZM34.3726 82.4559L54.1716 62.6569C55.7337 61.0948 58.2663 61.0948 59.8284 62.6569L79.6274 82.4559C81.1895 84.0179 81.1895 86.5506 79.6274 88.1127L59.8284 107.912C58.2663 109.474 55.7337 109.474 54.1716 107.912L34.3726 88.1127C32.8105 86.5506 32.8105 84.0179 34.3726 82.4559Z" stroke="#001133" stroke-width="4"/>
<rect x="83.9185" y="30.1784" width="53.8371" height="53.8371" rx="6" transform="rotate(90 83.9185 30.1784)" fill="#001133" stroke="#001133" stroke-width="4"/>
<rect x="83.4185" y="44.1377" width="12.4593" height="25.9185" rx="5.5" transform="rotate(90 83.4185 44.1377)" fill="#FFF4DA" stroke="#001133"/>
<rect x="43.0407" y="56.5969" width="12.4593" height="25.9185" rx="5.5" transform="rotate(-180 43.0407 56.5969)" fill="#FFF4DA" stroke="#001133"/>
<rect x="56.5" y="57.597" width="12.4593" height="25.9185" rx="5.5" transform="rotate(90 56.5 57.597)" fill="#C3E0FB" stroke="#001133"/>
<rect x="70.9593" y="57.597" width="12.4593" height="25.9185" rx="5.5" fill="#C3E0FB" stroke="#001133"/>
<rect x="57.5" y="43.1377" width="12.4593" height="25.9185" rx="5.5" transform="rotate(-90 57.5 43.1377)" fill="#FDD4D7" stroke="#001133"/>
<rect x="57.5" y="57.597" width="12.4593" height="25.9185" rx="5.5" fill="#FDD4D7" stroke="#001133"/>
<rect x="56.5" y="71.0562" width="12.4593" height="25.9185" rx="5.5" transform="rotate(90 56.5 71.0562)" fill="#CDF0EB" stroke="#001133"/>
<rect x="56.5" y="56.597" width="12.4593" height="25.9185" rx="5.5" transform="rotate(-180 56.5 56.597)" fill="#CDF0EB" stroke="#001133"/>
</svg>
